<svg xmlns="http://www.w3.org/2000/svg" viewBox="0 0 512 512">
  <rect width="512" height="512" rx="96" fill="#101614"/>
  <path fill="#56c9b7" d="M94 130h324a34 34 0 0 1 34 34v184a34 34 0 0 1-34 34H259l-82 58v-58H94a34 34 0 0 1-34-34V164a34 34 0 0 1 34-34Z"/>
  <path fill="#101614" d="M136 200h79v-34h43v34h84v40h-28a170 170 0 0 1-45 70c20 10 43 18 72 23l-22 42a221 221 0 0 1-84-37 235 235 0 0 1-88 37l-19-42c29-5 52-14 72-25a156 156 0 0 1-36-49l37-16a110 110 0 0 0 33 39 118 118 0 0 0 33-42H136v-40Z"/>
  <circle cx="380" cy="156" r="30" fill="#8eb7ff"/>
</svg>
